<svg width="116" height="65" viewBox="0 0 116 65" fill="none" xmlns="http://www.w3.org/2000/svg">
<path d="M34.9136 40V15.6982H31.3418V9.92188H44.501V15.6982H40.9292V40H34.9136ZM54.0321 40V10.2051C53.5048 10.835 52.7797 11.3477 51.8568 11.7432C50.934 12.124 50.0624 12.3145 49.2421 12.3145V6.14014C50.0185 6.02295 50.8534 5.77393 51.747 5.39307C52.6405 4.99756 53.4682 4.46289 54.2299 3.78906C55.0063 3.10059 55.5995 2.27295 56.0097 1.30615H62.2279V40H54.0321ZM69.8732 40V9.92188H81.9045V15.7324H75.9914V21.5942H81.6652V27.251H75.9914V34.1382H82.2976V40H69.8732Z" fill="#3C3535"/>
<path d="M11.6458 61V51.9736H10.3191V49.8281H15.2068V51.9736H13.8801V61H11.6458ZM17.2589 61V49.8281H19.4805V53.8208H20.5343V49.8281H22.7559V61H20.5343V55.9346H19.4805V61H17.2589ZM25.1762 61V49.8281H29.6449V51.9863H27.4486V54.1636H29.5561V56.2646H27.4486V58.8228H29.7909V61H25.1762ZM39.1065 61.1016C38.2136 61.1016 37.5302 60.8328 37.0562 60.2954C36.5865 59.7537 36.3516 58.973 36.3516 57.9531V52.6465C36.3516 51.6901 36.5843 50.9644 37.0498 50.4692C37.5196 49.9741 38.2051 49.7266 39.1065 49.7266C40.0079 49.7266 40.6913 49.9741 41.1568 50.4692C41.6265 50.9644 41.8614 51.6901 41.8614 52.6465V57.9531C41.8614 58.973 41.6244 59.7537 41.1504 60.2954C40.6807 60.8328 39.9994 61.1016 39.1065 61.1016ZM39.1255 59.0449C39.4641 59.0449 39.6333 58.717 39.6333 58.061V52.6084C39.6333 52.0583 39.4683 51.7832 39.1382 51.7832C38.7658 51.7832 38.5796 52.0646 38.5796 52.6274V58.0737C38.5796 58.4207 38.6219 58.6704 38.7066 58.8228C38.7912 58.9709 38.9309 59.0449 39.1255 59.0449ZM44.1927 61V49.8281H46.4906L47.5189 55.1792V49.8281H49.6771V61H47.4935L46.3763 55.4141V61H44.1927ZM52.0973 61V49.8281H56.5661V51.9863H54.3698V54.1636H56.4772V56.2646H54.3698V58.8228H56.7121V61H52.0973ZM63.3616 61V49.8281H67.8304V51.9863H65.6341V54.1636H67.7415V56.2646H65.6341V58.8228H67.9764V61H63.3616ZM69.8253 61L71.025 55.0776L70.0729 49.8218H72.2565L72.8341 53.6621L73.3483 49.8218H75.5382L74.5861 55.0776L75.7794 61H73.5197L72.8151 56.6328L72.0914 61H69.8253ZM77.8759 61V49.8281H80.8276C81.4454 49.8281 81.9342 49.9657 82.2939 50.2407C82.6578 50.5158 82.9181 50.9072 83.0747 51.415C83.2313 51.9229 83.3095 52.528 83.3095 53.2305C83.3095 53.9076 83.2439 54.4979 83.1128 55.0015C82.9816 55.5008 82.7467 55.888 82.4082 56.1631C82.0739 56.4382 81.5978 56.5757 80.9799 56.5757H80.0722V61H77.8759ZM80.0722 54.5698H80.1992C80.6139 54.5698 80.8678 54.4535 80.9609 54.2207C81.054 53.988 81.1006 53.6452 81.1006 53.1924C81.1006 52.7692 81.054 52.4434 80.9609 52.2148C80.872 51.9821 80.6583 51.8657 80.3198 51.8657H80.0722V54.5698ZM85.4505 61V49.8281H88.8782C89.4495 49.8281 89.8811 49.9593 90.1731 50.2217C90.4651 50.4798 90.6598 50.8438 90.7571 51.3135C90.8587 51.779 90.9095 52.327 90.9095 52.9575C90.9095 53.5669 90.8312 54.0535 90.6746 54.4175C90.5222 54.7814 90.2324 55.0332 89.805 55.1729C90.1562 55.2448 90.4016 55.4204 90.5413 55.6997C90.6852 55.9748 90.7571 56.3324 90.7571 56.7725V61H88.5545V56.6265C88.5545 56.3006 88.4868 56.0996 88.3513 56.0234C88.2202 55.943 88.0065 55.9028 87.7102 55.9028V61H85.4505ZM87.7229 53.9668H88.2625C88.5714 53.9668 88.7259 53.6304 88.7259 52.9575C88.7259 52.5216 88.692 52.236 88.6243 52.1006C88.5566 51.9652 88.4296 51.8975 88.2434 51.8975H87.7229V53.9668ZM93.0758 61V49.8281H97.5445V51.9863H95.3482V54.1636H97.4557V56.2646H95.3482V58.8228H97.6905V61H93.0758ZM102.517 61.1016C101.497 61.1016 100.76 60.8477 100.308 60.3398C99.859 59.832 99.6347 59.0238 99.6347 57.915V56.8232H101.844V58.2197C101.844 58.4779 101.882 58.681 101.958 58.8291C102.038 58.973 102.176 59.0449 102.371 59.0449C102.574 59.0449 102.713 58.9857 102.789 58.8672C102.87 58.7487 102.91 58.554 102.91 58.2832C102.91 57.9404 102.876 57.6548 102.809 57.4263C102.741 57.1935 102.622 56.9735 102.453 56.7661C102.288 56.5545 102.057 56.3091 101.761 56.0298L100.758 55.0776C100.009 54.3709 99.6347 53.5627 99.6347 52.6528C99.6347 51.7007 99.8547 50.9749 100.295 50.4756C100.739 49.9762 101.38 49.7266 102.218 49.7266C103.242 49.7266 103.968 49.9995 104.395 50.5454C104.827 51.0913 105.043 51.9207 105.043 53.0337H102.77V52.2656C102.77 52.1133 102.726 51.9948 102.637 51.9102C102.552 51.8255 102.436 51.7832 102.288 51.7832C102.11 51.7832 101.979 51.834 101.894 51.9355C101.814 52.0329 101.774 52.1598 101.774 52.3164C101.774 52.473 101.816 52.6423 101.901 52.8242C101.985 53.0062 102.153 53.2157 102.402 53.4526L103.691 54.6904C103.949 54.9359 104.186 55.1961 104.402 55.4712C104.618 55.742 104.791 56.0594 104.922 56.4233C105.053 56.783 105.119 57.2231 105.119 57.7437C105.119 58.7931 104.924 59.6162 104.535 60.2129C104.15 60.8053 103.477 61.1016 102.517 61.1016ZM109.951 61.1016C108.932 61.1016 108.195 60.8477 107.742 60.3398C107.294 59.832 107.07 59.0238 107.07 57.915V56.8232H109.279V58.2197C109.279 58.4779 109.317 58.681 109.393 58.8291C109.473 58.973 109.611 59.0449 109.805 59.0449C110.009 59.0449 110.148 58.9857 110.224 58.8672C110.305 58.7487 110.345 58.554 110.345 58.2832C110.345 57.9404 110.311 57.6548 110.243 57.4263C110.176 57.1935 110.057 56.9735 109.888 56.7661C109.723 56.5545 109.492 56.3091 109.196 56.0298L108.193 55.0776C107.444 54.3709 107.07 53.5627 107.07 52.6528C107.07 51.7007 107.29 50.9749 107.73 50.4756C108.174 49.9762 108.815 49.7266 109.653 49.7266C110.677 49.7266 111.403 49.9995 111.83 50.5454C112.262 51.0913 112.478 51.9207 112.478 53.0337H110.205V52.2656C110.205 52.1133 110.161 51.9948 110.072 51.9102C109.987 51.8255 109.871 51.7832 109.723 51.7832C109.545 51.7832 109.414 51.834 109.329 51.9355C109.249 52.0329 109.209 52.1598 109.209 52.3164C109.209 52.473 109.251 52.6423 109.336 52.8242C109.42 53.0062 109.587 53.2157 109.837 53.4526L111.126 54.6904C111.384 54.9359 111.621 55.1961 111.837 55.4712C112.052 55.742 112.226 56.0594 112.357 56.4233C112.488 56.783 112.554 57.2231 112.554 57.7437C112.554 58.7931 112.359 59.6162 111.97 60.2129C111.585 60.8053 110.912 61.1016 109.951 61.1016Z" fill="#3C3535"/>
</svg>
