<svg width="89" height="40" viewBox="0 0 89 40" fill="none" xmlns="http://www.w3.org/2000/svg">
<rect x="49" width="40" height="40" fill="white"/>
<path d="M50.9999 20.4873H87.9999" stroke="#383030" stroke-width="2"/>
<path d="M50.9999 12.6826H87.9999" stroke="#383030" stroke-width="2"/>
<path d="M58 28.293L88 28.293" stroke="#383030" stroke-width="2"/>
<path d="M2.19922 14.0469H3.93555L6.49219 21.3545L9.04883 14.0469H10.7852L7.18945 24H5.79492L2.19922 14.0469ZM1.2627 14.0469H2.99219L3.30664 21.1699V24H1.2627V14.0469ZM9.99219 14.0469H11.7285V24H9.67773V21.1699L9.99219 14.0469ZM20.2051 22.4004V24H14.9072V22.4004H20.2051ZM15.5771 14.0469V24H13.5264V14.0469H15.5771ZM19.5146 18.1006V19.6592H14.9072V18.1006H19.5146ZM20.1982 14.0469V15.6533H14.9072V14.0469H20.1982ZM29.502 14.0469V24H27.4512L23.4521 17.3281V24H21.4014V14.0469H23.4521L27.458 20.7256V14.0469H29.502ZM36.7822 14.0469H38.8262V20.623C38.8262 21.3887 38.6621 22.0335 38.334 22.5576C38.0104 23.0817 37.5615 23.4759 36.9873 23.7402C36.4176 24.0046 35.7614 24.1367 35.0186 24.1367C34.2757 24.1367 33.6149 24.0046 33.0361 23.7402C32.4619 23.4759 32.0107 23.0817 31.6826 22.5576C31.359 22.0335 31.1973 21.3887 31.1973 20.623V14.0469H33.248V20.623C33.248 21.0697 33.3187 21.4342 33.46 21.7168C33.6012 21.9993 33.804 22.2067 34.0684 22.3389C34.3372 22.471 34.654 22.5371 35.0186 22.5371C35.3923 22.5371 35.709 22.471 35.9688 22.3389C36.2331 22.2067 36.4336 21.9993 36.5703 21.7168C36.7116 21.4342 36.7822 21.0697 36.7822 20.623V14.0469Z" fill="#383030"/>
</svg>
